<?xml version="1.0" encoding="UTF-8" standalone="no"?>
<!-- Created with Inkscape (http://www.inkscape.org/) -->

<svg
   width="179.69679mm"
   height="74.977028mm"
   viewBox="0 0 179.69679 74.977028"
   version="1.1"
   id="svg1"
   inkscape:version="1.3 (0e150ed6c4, 2023-07-21)"
   sodipodi:docname="manifolddef.svg"
   xmlns:inkscape="http://www.inkscape.org/namespaces/inkscape"
   xmlns:sodipodi="http://sodipodi.sourceforge.net/DTD/sodipodi-0.dtd"
   xmlns="http://www.w3.org/2000/svg"
   xmlns:svg="http://www.w3.org/2000/svg">
  <sodipodi:namedview
     id="namedview1"
     pagecolor="#ffffff"
     bordercolor="#000000"
     borderopacity="0.25"
     inkscape:showpageshadow="2"
     inkscape:pageopacity="0.0"
     inkscape:pagecheckerboard="0"
     inkscape:deskcolor="#d1d1d1"
     inkscape:document-units="mm"
     inkscape:zoom="10.852794"
     inkscape:cx="470.89255"
     inkscape:cy="163.32199"
     inkscape:window-width="2560"
     inkscape:window-height="1334"
     inkscape:window-x="-11"
     inkscape:window-y="-11"
     inkscape:window-maximized="1"
     inkscape:current-layer="layer1" />
  <defs
     id="defs1">
    <marker
       style="overflow:visible"
       id="marker23"
       refX="0"
       refY="0"
       orient="auto-start-reverse"
       inkscape:stockid="Triangle arrow"
       markerWidth="4"
       markerHeight="2"
       viewBox="0 0 1 1"
       inkscape:isstock="true"
       inkscape:collect="always"
       preserveAspectRatio="none">
      <path
         transform="scale(0.5)"
         style="fill:context-stroke;fill-rule:evenodd;stroke:context-stroke;stroke-width:1pt"
         d="M 5.77,0 -2.88,5 V -5 Z"
         id="path23" />
    </marker>
    <marker
       style="overflow:visible"
       id="marker15"
       refX="0"
       refY="0"
       orient="auto-start-reverse"
       inkscape:stockid="Triangle arrow"
       markerWidth="2"
       markerHeight="1"
       viewBox="0 0 1 1"
       inkscape:isstock="true"
       inkscape:collect="always"
       preserveAspectRatio="none">
      <path
         transform="scale(0.5)"
         style="fill:context-stroke;fill-rule:evenodd;stroke:context-stroke;stroke-width:1pt"
         d="M 5.77,0 -2.88,5 V -5 Z"
         id="path15" />
    </marker>
    <marker
       style="overflow:visible"
       id="Triangle"
       refX="0"
       refY="0"
       orient="auto-start-reverse"
       inkscape:stockid="Triangle arrow"
       markerWidth="2"
       markerHeight="1"
       viewBox="0 0 1 1"
       inkscape:isstock="true"
       inkscape:collect="always"
       preserveAspectRatio="none">
      <path
         transform="scale(0.5)"
         style="fill:context-stroke;fill-rule:evenodd;stroke:context-stroke;stroke-width:1pt"
         d="M 5.77,0 -2.88,5 V -5 Z"
         id="path135" />
    </marker>
  </defs>
  <g
     inkscape:label="图层 1"
     inkscape:groupmode="layer"
     id="layer1"
     transform="translate(-21.05935,-26.961737)">
    <rect
       style="fill:#838383;fill-opacity:0;fill-rule:evenodd;stroke:#000000;stroke-width:0.35034999;stroke-dasharray:none"
       id="rect1"
       width="65.116646"
       height="55.97747"
       x="21.13435"
       y="34.271919" />
    <rect
       style="fill:#838383;fill-opacity:0;fill-rule:evenodd;stroke:#000000;stroke-width:0.351;stroke-dasharray:none"
       id="rect2"
       width="92.343788"
       height="74.827026"
       x="108.33735"
       y="27.036737" />
    <path
       d="m 59.77895,75.036839 h -2.644799 v 2.315621 c 0.245638,-0.178143 0.490381,-0.362782 0.732771,-0.558106 0.261892,-0.211038 0.521706,-0.431797 0.779281,-0.661975 0.257575,-0.230178 0.513133,-0.469937 0.765845,-0.718302 0.123651,-0.121524 0.244513,-0.25153 0.366902,-0.377238 z"
       style="fill:none;fill-rule:evenodd;stroke:#000000;stroke-width:0.351;stroke-dasharray:none"
       id="path49" />
    <path
       d="m 65.134179,67.03681 h -8.000028 v 8.000029 h 2.644799 c 0.127744,-0.131209 0.256625,-0.258132 0.382923,-0.393775 0.247302,-0.265599 0.491942,-0.539775 0.733288,-0.821655 0.241346,-0.28188 0.479325,-0.571472 0.714169,-0.868681 0.234844,-0.297208 0.466735,-0.602055 0.694531,-0.913639 0.227796,-0.311584 0.451592,-0.629975 0.671794,-0.954981 0.220201,-0.325006 0.436478,-0.656779 0.648539,-0.994254 0.212061,-0.337476 0.419843,-0.68092 0.623218,-1.029911 0.203374,-0.348992 0.402721,-0.703429 0.596862,-1.062985 0.09922,-0.183759 0.193204,-0.372292 0.289905,-0.558622 z"
       style="fill:none;fill-rule:evenodd;stroke:#000000;stroke-width:0.351;stroke-dasharray:none"
       id="path48" />
    <path
       d="m 57.134151,77.35246 v -2.315621 h -8.000029 v 5.727299 c 0.349256,-0.08243 0.705327,-0.17059 1.081071,-0.278019 0.43751,-0.12509 0.893075,-0.268287 1.366842,-0.430982 0.473767,-0.162695 0.965482,-0.345022 1.475879,-0.54932 0.510396,-0.204299 1.039585,-0.43068 1.586983,-0.680579 0.273699,-0.12495 0.546471,-0.261376 0.818038,-0.409277 0.271566,-0.147902 0.541915,-0.307074 0.810803,-0.476974 0.268888,-0.1699 0.535838,-0.350623 0.801501,-0.541569 0.01978,-0.01422 0.03915,-0.03063 0.05891,-0.04496 z"
       style="fill:none;fill-rule:evenodd;stroke:#000000;stroke-width:0.351;stroke-dasharray:none"
       id="path47" />
    <path
       d="m 57.134151,67.03681 h -8.000029 v 8.000029 h 8.000029 z"
       style="fill:none;fill-rule:evenodd;stroke:#000000;stroke-width:0.351;stroke-dasharray:none"
       id="path46" />
    <path
       d="M 49.134122,75.036839 V 67.03681 h -8.000028 v 8.000029 z"
       style="fill:none;fill-rule:evenodd;stroke:#000000;stroke-width:0.15060093;stroke-dasharray:none"
       id="path45" />
    <path
       d="m 49.134122,80.764138 v -5.727299 h -8.000028 v 3.884 c 0.245601,0.594587 0.489755,1.186519 0.753959,1.808676 0,0 0.06218,0.03271 0.188619,0.08216 0.126437,0.04946 0.316725,0.115481 0.572575,0.182418 0.127924,0.03347 0.272213,0.06738 0.433048,0.09922 0.160836,0.03184 0.338666,0.06163 0.532784,0.08785 0.194118,0.02622 0.404747,0.04852 0.63252,0.06511 0.227772,0.01659 0.472523,0.02751 0.734322,0.03049 0.261799,0.003 0.540444,-0.0019 0.836641,-0.01654 0.296198,-0.01464 0.61006,-0.03919 0.941028,-0.07545 0.330968,-0.03626 0.679305,-0.08437 1.045414,-0.146244 0.36611,-0.06187 0.749728,-0.137446 1.151351,-0.228927 0.0567,-0.01291 0.120356,-0.03193 0.177767,-0.04547 z"
       style="fill:none;fill-rule:evenodd;stroke:#000000;stroke-width:0.351;stroke-dasharray:none"
       id="path44" />
    <path
       d="m 41.134094,78.920839 v -3.884 h -1.540475 c 0.102382,0.270725 0.193658,0.526038 0.301274,0.804085 0.294338,0.760482 0.608102,1.548295 0.940511,2.363163 0.09434,0.231264 0.201366,0.481137 0.29869,0.716752 z"
       style="fill:none;fill-rule:evenodd;stroke:#000000;stroke-width:0.351;stroke-dasharray:none"
       id="path43" />
    <path
       d="m 39.593619,75.036839 h 1.540475 V 67.03681 h -3.992522 c 0.06345,0.329996 0.121258,0.653314 0.204639,1.008207 0.126251,0.537358 0.275324,1.103079 0.445968,1.697054 0.170643,0.593976 0.362736,1.216001 0.576192,1.866036 0.213456,0.650036 0.448112,1.327931 0.702799,2.033468 0.161569,0.447579 0.344807,0.925532 0.522449,1.395264 z"
       style="fill:none;fill-rule:evenodd;stroke:#000000;stroke-width:0.351;stroke-dasharray:none"
       id="path42" />
    <path
       d="m 37.141572,67.03681 h 3.992522 v -6.297807 c -0.0026,-3.87e-4 -0.0051,-0.0012 -0.0078,-0.0015 -0.202299,-0.02975 -0.396792,-0.05146 -0.583943,-0.06563 -0.187152,-0.01417 -0.366785,-0.02099 -0.538986,-0.01964 -0.172201,0.0013 -0.337095,0.0106 -0.494543,0.02739 -0.157448,0.01679 -0.307726,0.04121 -0.450619,0.07338 -0.142892,0.03217 -0.278675,0.0719 -0.40721,0.119373 -0.128535,0.04747 -0.249944,0.102657 -0.364319,0.165364 -0.114374,0.06271 -0.221532,0.132967 -0.321944,0.21084 -0.100412,0.07787 -0.193956,0.163347 -0.280603,0.256315 -0.08665,0.09297 -0.166183,0.193796 -0.239262,0.301791 -0.07308,0.107994 -0.139762,0.223281 -0.199471,0.346232 -0.05971,0.12295 -0.112627,0.253353 -0.159163,0.39119 -0.04654,0.137838 -0.08633,0.282978 -0.11989,0.435633 -0.03356,0.152654 -0.06086,0.312672 -0.08165,0.480074 -0.02078,0.167401 -0.0352,0.342437 -0.04341,0.524515 -0.0082,0.182079 -0.01038,0.371238 -0.0062,0.567924 0.0042,0.196687 0.01464,0.400625 0.03101,0.611849 0.03272,0.422449 0.08974,0.874258 0.170016,1.35444 0.02726,0.163049 0.0728,0.348651 0.105419,0.518314 z"
       style="fill:none;fill-rule:evenodd;stroke:#000000;stroke-width:0.351;stroke-dasharray:none"
       id="path41" />
    <path
       d="m 41.134094,60.739003 v 6.297807 h 8.000028 v -4.55166 c -0.210992,-0.01906 -0.428046,-0.04431 -0.661458,-0.08372 -0.271515,-0.04583 -0.557623,-0.10374 -0.856795,-0.171049 -0.598345,-0.134618 -1.249282,-0.305834 -1.940967,-0.487308 -0.691685,-0.181475 -1.423944,-0.37357 -2.185913,-0.549838 -0.380985,-0.08813 -0.769521,-0.172009 -1.163754,-0.24908 -0.391672,-0.07657 -0.789228,-0.145908 -1.191141,-0.205156 z"
       style="fill:none;fill-rule:evenodd;stroke:#000000;stroke-width:0.351;stroke-dasharray:none"
       id="path40" />
    <path
       d="m 65.134179,59.036782 h -8.000028 v 8.000028 h 8.000028 z"
       style="fill:none;fill-rule:evenodd;stroke:#000000;stroke-width:0.351;stroke-dasharray:none"
       id="path39" />
    <path
       d="m 49.134122,62.48515 v 4.55166 h 8.000029 v -8.000028 h -5.761406 c 0.02555,0.137351 0.0658,0.297204 0.08475,0.42478 0.02675,0.180126 0.04708,0.350778 0.06098,0.512113 0.01389,0.161336 0.02134,0.313463 0.02274,0.45682 0.0014,0.143357 -0.0032,0.277917 -0.01395,0.40411 -0.01074,0.126193 -0.02761,0.243624 -0.05013,0.353467 -0.02252,0.109842 -0.05081,0.212136 -0.08475,0.306441 -0.03394,0.09431 -0.07334,0.180868 -0.118339,0.260449 -0.045,0.07958 -0.09572,0.151887 -0.151412,0.217558 -0.05569,0.06567 -0.116387,0.124676 -0.182418,0.17725 -0.06603,0.05257 -0.136899,0.09872 -0.212906,0.13901 -0.07601,0.04029 -0.157256,0.07453 -0.24288,0.103353 -0.08562,0.02882 -0.175904,0.05212 -0.270784,0.07028 -0.09488,0.01816 -0.194397,0.03147 -0.298173,0.03979 -0.207552,0.01664 -0.43237,0.01423 -0.673344,-0.0036 -0.03382,-0.0025 -0.07356,-0.01033 -0.108004,-0.01344 z"
       style="fill:none;fill-rule:evenodd;stroke:#000000;stroke-width:0.351;stroke-dasharray:none"
       id="path38" />
    <path
       d="m 65.134179,59.036782 v 8.000028 h 0.208773 c 0.02254,-0.04469 0.04634,-0.08798 0.06873,-0.132808 0.184362,-0.369166 0.363914,-0.743038 0.537951,-1.120862 0.174037,-0.377824 0.342747,-0.759621 0.505912,-1.14515 0.163166,-0.385528 0.320575,-0.77509 0.472323,-1.16737 0.151748,-0.392281 0.297916,-0.787378 0.437699,-1.185458 0.139784,-0.398079 0.273219,-0.799068 0.400493,-1.201994 0.127274,-0.402925 0.248551,-0.808094 0.362768,-1.214912 0.07754,-0.276192 0.147278,-0.553857 0.218592,-0.831474 z"
       style="fill:none;fill-rule:evenodd;stroke:#000000;stroke-width:0.351;stroke-dasharray:none"
       id="path37" />
    <path
       d="m 65.134179,51.036753 v 8.000029 h 3.213241 c 0.03373,-0.131301 0.07105,-0.261688 0.103353,-0.393258 0.100615,-0.409758 0.194653,-0.820737 0.281119,-1.232483 0.08647,-0.411745 0.165424,-0.824354 0.237195,-1.237134 0.07177,-0.412779 0.136223,-0.825822 0.192753,-1.238684 0.05653,-0.412861 0.105501,-0.825661 0.146245,-1.23765 0.04074,-0.41199 0.07326,-0.823351 0.09767,-1.233517 0.02441,-0.410165 0.04053,-0.818894 0.04806,-1.226281 0.0012,-0.06729 -0.0013,-0.13382 -5.17e-4,-0.201022 z"
       style="fill:none;fill-rule:evenodd;stroke:#000000;stroke-width:0.351;stroke-dasharray:none"
       id="path36" />
    <path
       d="m 65.134179,43.036725 v 8.000028 h 4.319116 c 0.0039,-0.339636 0.0052,-0.678977 -0.0031,-1.015958 -0.0099,-0.403658 -0.02846,-0.805087 -0.05633,-1.204061 -0.02787,-0.398974 -0.06472,-0.795737 -0.111104,-1.189075 -0.04639,-0.393338 -0.102498,-0.783206 -0.167948,-1.169954 -0.06545,-0.386749 -0.137003,-0.752254 -0.214974,-1.097091 -0.07797,-0.344837 -0.162159,-0.669466 -0.251665,-0.974101 -0.08951,-0.304634 -0.184685,-0.589105 -0.284737,-0.855245 -0.06658,-0.177098 -0.138406,-0.333861 -0.209289,-0.494543 z"
       style="fill:none;fill-rule:evenodd;stroke:#000000;stroke-width:0.351;stroke-dasharray:none"
       id="path35" />
    <path
       d="m 65.134179,40.313894 v 2.722831 h 3.019971 c -0.03564,-0.08079 -0.06875,-0.17183 -0.10542,-0.248564 -0.10961,-0.229353 -0.223401,-0.440828 -0.341581,-0.635103 -0.118181,-0.194275 -0.240623,-0.371362 -0.366386,-0.532267 -0.125763,-0.160906 -0.255215,-0.305356 -0.387573,-0.434599 -0.132358,-0.129244 -0.267695,-0.243325 -0.40566,-0.342615 -0.137966,-0.09929 -0.278579,-0.18372 -0.421163,-0.254765 -0.142585,-0.07104 -0.286833,-0.128607 -0.433049,-0.173116 -0.146216,-0.04451 -0.294007,-0.07592 -0.442867,-0.0956 -0.0385,-0.0051 -0.07764,-0.0027 -0.116272,-0.0062 z"
       style="fill:none;fill-rule:evenodd;stroke:#000000;stroke-width:0.351;stroke-dasharray:none"
       id="path34" />
    <path
       d="m 65.134179,40.313894 c -0.110751,-0.01004 -0.221722,-0.02064 -0.333313,-0.01809 -0.150516,0.0034 -0.301501,0.01804 -0.452685,0.04289 -0.151185,0.02485 -0.302338,0.05983 -0.453203,0.104387 -0.150864,0.04455 -0.301578,0.09868 -0.451135,0.16123 -0.149557,0.06255 -0.298189,0.133553 -0.445451,0.21239 -0.147262,0.07884 -0.293203,0.165483 -0.437182,0.258899 -0.14398,0.09342 -0.286106,0.193954 -0.425814,0.30024 -0.139709,0.106286 -0.276895,0.218449 -0.411345,0.335897 -0.134449,0.117448 -0.266087,0.240001 -0.394291,0.366903 -0.256407,0.253804 -0.499008,0.524783 -0.724503,0.806152 -0.03944,0.04921 -0.07017,0.102125 -0.108521,0.151929 h 4.637443 z"
       style="fill:none;fill-rule:evenodd;stroke:#000000;stroke-width:0.351;stroke-dasharray:none"
       id="path33" />
    <path
       d="m 65.134179,43.036725 h -4.637443 c -0.18093,0.234982 -0.35808,0.473121 -0.512113,0.716752 -0.186681,0.295268 -0.351996,0.593851 -0.49196,0.889351 -0.06998,0.14775 -0.133348,0.294521 -0.190169,0.439767 -0.05682,0.145245 -0.106673,0.288915 -0.149345,0.429948 -0.04267,0.141033 -0.0784,0.279333 -0.105937,0.414445 -0.02754,0.135112 -0.04698,0.266808 -0.05839,0.394291 -0.01141,0.127483 -0.01449,0.250824 -0.0088,0.36897 0.0057,0.118145 0.02013,0.231381 0.04393,0.33848 0.0476,0.2142 0.07947,0.416236 0.0956,0.606682 0.01613,0.190445 0.01632,0.369099 5.17e-4,0.535884 -0.01581,0.166786 -0.0474,0.32187 -0.0956,0.465088 -0.04821,0.143218 -0.112719,0.274548 -0.193787,0.394291 -0.08107,0.119744 -0.179125,0.228166 -0.293522,0.324528 -0.114398,0.09636 -0.245583,0.180658 -0.393775,0.253731 -0.148191,0.07307 -0.313126,0.134608 -0.495577,0.184485 -0.156338,0.04274 -0.331853,0.07293 -0.513663,0.0987 v 1.144633 h 8.000028 z"
       style="fill:none;fill-rule:evenodd;stroke:#000000;stroke-width:0.351;stroke-dasharray:none"
       id="path32" />
    <path
       d="m 65.134179,51.036753 h -8.000028 v 8.000029 h 8.000028 z"
       style="fill:none;fill-rule:evenodd;stroke:#000000;stroke-width:0.351;stroke-dasharray:none"
       id="path31" />
    <path
       d="m 49.134122,53.766302 v -2.729549 h -2.010213 c 0.09916,0.123027 0.175917,0.215523 0.278019,0.344165 0.243206,0.306424 0.493457,0.628625 0.744658,0.964799 0.2512,0.336174 0.503417,0.6866 0.750341,1.049549 0.08145,0.119722 0.157098,0.248616 0.237195,0.371036 z"
       style="fill:none;fill-rule:evenodd;stroke:#000000;stroke-width:0.351;stroke-dasharray:none"
       id="path30" />
    <path
       d="m 49.134122,48.586774 v 2.449979 h 8.000029 V 49.89212 c -0.03037,0.0043 -0.0547,0.01271 -0.08578,0.01654 -0.217175,0.02678 -0.45147,0.04171 -0.703833,0.04548 -0.252363,0.0038 -0.522787,-0.0036 -0.810803,-0.02274 -0.288017,-0.01915 -0.593639,-0.05001 -0.917774,-0.09198 -0.324134,-0.04198 -0.66661,-0.09549 -1.027327,-0.160197 -0.360718,-0.06471 -0.74015,-0.140549 -1.137915,-0.227893 -0.397766,-0.08734 -0.813742,-0.186217 -1.24902,-0.296106 -0.435278,-0.109888 -0.889451,-0.230944 -1.362707,-0.363285 -0.225767,-0.06313 -0.470379,-0.136928 -0.704867,-0.205155 z"
       style="fill:none;fill-rule:evenodd;stroke:#000000;stroke-width:0.351;stroke-dasharray:none"
       id="path29" />
    <path
       d="m 51.372745,59.036782 h 5.761406 v -8.000029 h -8.000029 v 2.729549 c 0.162725,0.248708 0.32724,0.494784 0.481624,0.75396 0.230376,0.386748 0.449568,0.785118 0.651124,1.192692 0.100777,0.203786 0.197082,0.409614 0.288354,0.61805 0.09127,0.208435 0.177634,0.419291 0.257865,0.632003 0.08023,0.212711 0.154551,0.427271 0.222209,0.643888 0.06766,0.216616 0.128868,0.435108 0.182418,0.655257 0.06917,0.284375 0.108427,0.524126 0.155029,0.77463 z"
       style="fill:none;fill-rule:evenodd;stroke:#000000;stroke-width:0.351;stroke-dasharray:none"
       id="path21" />
    <path
       d="m 47.123909,51.036753 h 2.010213 v -2.449979 c -0.257049,-0.07479 -0.50497,-0.14441 -0.772563,-0.22531 -0.511698,-0.154699 -0.954851,-0.278937 -1.335835,-0.374137 -0.380985,-0.0952 -0.699673,-0.161313 -0.962215,-0.199988 -0.131272,-0.01934 -0.248472,-0.03196 -0.352434,-0.03772 -0.103962,-0.0058 -0.194665,-0.0049 -0.272851,0.0026 -0.07819,0.0074 -0.143976,0.02159 -0.197921,0.04186 -0.05394,0.02027 -0.0964,0.04686 -0.127641,0.07958 -0.03124,0.03273 -0.05143,0.07146 -0.0615,0.116272 -0.01006,0.04481 -0.01009,0.0954 -5.17e-4,0.151929 0.0096,0.05652 0.02865,0.119201 0.05633,0.187068 0.02768,0.06787 0.06427,0.141305 0.10852,0.220142 0.08851,0.157674 0.208395,0.33656 0.353984,0.535884 0.145588,0.199325 0.317063,0.418809 0.507462,0.656808 0.300866,0.376082 0.67374,0.831943 1.046965,1.295011 z"
       style="fill:none;fill-rule:evenodd;stroke:#000000;stroke-width:0.351;stroke-dasharray:none"
       id="path20" />
    <path
       style="fill:#838383;fill-opacity:0;fill-rule:evenodd;stroke:#000000;stroke-width:0.351;stroke-dasharray:none"
       d="m 126.04451,54.644673 c 12.94717,-3.807992 18.08795,-11.614372 19.03995,-16.374361 3.6176,9.900777 11.80478,9.519977 19.23036,7.996781 5.14079,14.660766 -14.47037,25.323141 -23.03835,26.846338 -17.70716,-0.761598 -15.23196,-18.468758 -15.23196,-18.468758 z"
       id="path4" />
    <path
       d="m 135.58466,63.587925 c -0.0195,-0.265322 -0.0433,-0.521685 -0.0574,-0.79685 -0.0132,-0.259816 -0.0236,-0.523615 -0.031,-0.79065 -0.007,-0.239274 -0.01,-0.482133 -0.0114,-0.726054 -0.27593,-0.01 -0.55089,-0.02024 -0.81958,-0.03514 -0.3297,-0.01828 -0.65362,-0.04047 -0.97049,-0.06666 -0.31687,-0.02619 -0.6267,-0.0568 -0.92862,-0.09147 -0.098,-0.01125 -0.18951,-0.02606 -0.28577,-0.03824 0.009,0.153118 0.019,0.306331 0.0377,0.456303 0.0119,0.0952 0.0293,0.186529 0.0522,0.274402 0.0229,0.08787 0.0513,0.171931 0.0848,0.252697 0.0334,0.08077 0.0721,0.158147 0.11576,0.232028 0.0436,0.07388 0.0923,0.144657 0.14573,0.211873 0.0534,0.06722 0.11126,0.130947 0.17414,0.191719 0.0629,0.06077 0.13064,0.118567 0.20258,0.173117 0.0719,0.05455 0.14832,0.105965 0.22892,0.154512 0.0806,0.04855 0.16537,0.09418 0.25425,0.136943 0.0889,0.04277 0.18176,0.08268 0.27854,0.119889 0.0968,0.03721 0.1975,0.07149 0.30179,0.103353 0.10428,0.03187 0.21207,0.0611 0.32349,0.08785 0.11142,0.02675 0.22652,0.05102 0.34468,0.07286 0.17713,0.03275 0.36845,0.05515 0.55966,0.07751 z"
       style="opacity:1;fill:none;fill-rule:evenodd;stroke:#000000;stroke-width:0.351;stroke-dasharray:none"
       id="path74" />
    <path
       d="m 132.48046,61.042861 c 0.0963,0.01218 0.18778,0.02699 0.28577,0.03824 0.30192,0.03467 0.61175,0.06528 0.92862,0.09147 0.31687,0.02619 0.64079,0.04838 0.97049,0.06666 0.26869,0.0149 0.54365,0.02514 0.81958,0.03514 -1.5e-4,-0.0283 -0.001,-0.05588 -0.002,-0.08423 -7.6e-4,-0.272743 0.002,-0.547817 0.009,-0.824756 0.007,-0.276939 0.0177,-0.555468 0.0331,-0.835091 0.0153,-0.279624 0.0352,-0.560497 0.06,-0.841293 0.0247,-0.280796 0.0544,-0.561869 0.0894,-0.842325 0.0224,-0.179192 0.0507,-0.357338 0.0775,-0.535885 -0.0571,-0.0029 -0.11636,-0.0046 -0.17312,-0.0078 -0.32969,-0.01828 -0.65309,-0.04047 -0.96996,-0.06666 -0.31687,-0.02619 -0.62722,-0.05629 -0.92914,-0.09095 -0.23051,-0.02647 -0.45161,-0.0577 -0.67231,-0.0894 -0.0356,0.127939 -0.0713,0.256226 -0.10542,0.390157 -0.0452,0.177384 -0.0888,0.35925 -0.12971,0.545187 -0.0409,0.185936 -0.0794,0.375665 -0.11421,0.567924 -0.0348,0.192258 -0.0657,0.387077 -0.0925,0.583426 -0.0268,0.19635 -0.0492,0.39452 -0.0661,0.592729 -0.0169,0.198209 -0.0284,0.396442 -0.0336,0.594279 -0.005,0.197837 -0.004,0.394911 0.004,0.590145 0.002,0.04145 0.008,0.08171 0.0103,0.12299 z"
       style="opacity:1;fill:none;fill-rule:evenodd;stroke:#000000;stroke-width:0.351;stroke-dasharray:none"
       id="path73" />
    <path
       d="m 144.76601,62.776605 c -9.4e-4,-0.01013 -0.002,-0.01879 -0.003,-0.02894 -0.0443,-0.48168 -0.0815,-0.985704 -0.108,-1.505334 -0.004,-0.08694 -0.007,-0.176777 -0.0103,-0.264583 -0.48974,0.03977 -0.97833,0.08076 -1.48156,0.115238 -0.57335,0.03929 -1.15589,0.07111 -1.7384,0.101286 0.0254,0.445871 0.0552,0.885405 0.0935,1.302246 0.0257,0.27901 0.0576,0.532227 0.0873,0.7953 0.27345,-0.03835 0.54743,-0.07693 0.82269,-0.118856 0.69577,-0.105984 1.39495,-0.222065 2.08514,-0.341064 0.0853,-0.01471 0.1684,-0.03691 0.2527,-0.05529 z"
       style="opacity:1;fill:none;fill-rule:evenodd;stroke:#000000;stroke-width:0.351;stroke-dasharray:none"
       id="path61" />
    <path
       style="fill:#838383;fill-opacity:0;fill-rule:evenodd;stroke:#000000;stroke-width:0.351;stroke-dasharray:none"
       d="m 161.02085,75.259744 -11.71306,13.597914 25.98414,-0.134634 11.98232,-13.732546 z"
       id="path13"
       sodipodi:nodetypes="ccccc" />
    <path
       style="fill:#838383;fill-opacity:0;fill-rule:evenodd;stroke:#000000;stroke-width:0.351;marker-start:url(#marker15);marker-end:url(#Triangle);stroke-dasharray:none"
       d="m 167.21396,78.760197 -4.84679,6.058477 11.57843,0.134633"
       id="path14" />
    <text
       xml:space="preserve"
       style="font-size:4.23333px;line-height:0;font-family:Arial;-inkscape-font-specification:'Arial, Normal';fill:#000000;fill-opacity:1;fill-rule:evenodd;stroke:#000000;stroke-width:0.15060093;stroke-dasharray:none"
       x="156.7126"
       y="88.453758"
       id="text15"><tspan
         sodipodi:role="line"
         id="tspan15"
         style="stroke-width:0.15060093;stroke-dasharray:none;fill:#000000;fill-opacity:1"
         x="156.7126"
         y="88.453758">$O$</tspan></text>
    <text
       xml:space="preserve"
       style="font-size:4.23333px;line-height:0;font-family:Arial;-inkscape-font-specification:'Arial, Normal';fill:#000000;fill-opacity:1;fill-rule:evenodd;stroke:#000000;stroke-width:0.150601;stroke-dasharray:none"
       x="170.32295"
       y="79.206215"
       id="text16"><tspan
         sodipodi:role="line"
         id="tspan16"
         style="fill:#000000;fill-opacity:1;stroke-width:0.150601;stroke-dasharray:none"
         x="170.32295"
         y="79.206215">$TM_x$</tspan></text>
    <text
       xml:space="preserve"
       style="font-size:4.23333px;line-height:0;font-family:Arial;-inkscape-font-specification:'Arial, Normal';fill:#000000;fill-opacity:1;fill-rule:evenodd;stroke:#000000;stroke-width:0.15060093;stroke-dasharray:none"
       x="156.84723"
       y="51.295105"
       id="text17"><tspan
         sodipodi:role="line"
         id="tspan17"
         style="stroke-width:0.15060093;stroke-dasharray:none;fill:#000000;fill-opacity:1"
         x="156.84723"
         y="51.295105">$M$</tspan></text>
    <text
       xml:space="preserve"
       style="font-size:4.23333px;line-height:0;font-family:Arial;-inkscape-font-specification:'Arial, Normal';fill:#000000;fill-opacity:1;fill-rule:evenodd;stroke:#000000;stroke-width:0.15060093;stroke-dasharray:none"
       x="140.01813"
       y="66.777878"
       id="text18"><tspan
         sodipodi:role="line"
         id="tspan18"
         style="stroke-width:0.15060093;stroke-dasharray:none;fill:#000000;fill-opacity:1"
         x="140.01813"
         y="66.777878">$g(U)$</tspan></text>
    <text
       xml:space="preserve"
       style="font-size:4.23333px;line-height:0;font-family:Arial;-inkscape-font-specification:'Arial, Normal';fill:#000000;fill-opacity:1;fill-rule:evenodd;stroke:#000000;stroke-width:0.15060093;stroke-dasharray:none"
       x="134.51219"
       y="60.834435"
       id="text19"><tspan
         sodipodi:role="line"
         id="tspan19"
         style="stroke-width:0.15060093;stroke-dasharray:none;fill:#000000;fill-opacity:1"
         x="134.51219"
         y="60.834435">$x$</tspan></text>
    <text
       xml:space="preserve"
       style="font-size:4.23333px;line-height:0;font-family:Arial;-inkscape-font-specification:'Arial, Normal';fill:#000000;fill-opacity:1;fill-rule:evenodd;stroke:#000000;stroke-width:0.15060093;stroke-dasharray:none"
       x="114.034"
       y="98.012688"
       id="text20"><tspan
         sodipodi:role="line"
         id="tspan20"
         style="stroke-width:0.15060093;stroke-dasharray:none;fill:#000000;fill-opacity:1"
         x="114.034"
         y="98.012688">$\R^k$</tspan></text>
    <text
       xml:space="preserve"
       style="font-size:4.23333px;line-height:0;font-family:Arial;-inkscape-font-specification:'Arial, Normal';fill:#000000;fill-opacity:1;fill-rule:evenodd;stroke:#000000;stroke-width:0.15060093;stroke-dasharray:none"
       x="26.465538"
       y="86.441399"
       id="text21"><tspan
         sodipodi:role="line"
         id="tspan21"
         style="stroke-width:0.15060093;stroke-dasharray:none;fill:#000000;fill-opacity:1"
         x="26.465538"
         y="86.441399">$\R^m$</tspan></text>
    <text
       xml:space="preserve"
       style="font-size:4.23333px;line-height:0;font-family:Arial;-inkscape-font-specification:'Arial, Normal';fill:#000000;fill-opacity:1;fill-rule:evenodd;stroke:#000000;stroke-width:0.15060093;stroke-dasharray:none"
       x="65.307045"
       y="74.065422"
       id="text22"><tspan
         sodipodi:role="line"
         id="tspan22"
         style="stroke-width:0.15060093;stroke-dasharray:none;fill:#000000;fill-opacity:1"
         x="65.307045"
         y="74.065422">$U$</tspan></text>
    <path
       style="fill:#838383;fill-opacity:0;fill-rule:evenodd;stroke:#000000;stroke-width:0.15060093;marker-start:url(#marker23);marker-end:url(#marker23);stroke-dasharray:none"
       d="m 56.983338,57.016996 v 5.991161 l 6.125795,-0.06731"
       id="path22" />
    <circle
       style="fill:#000000;fill-opacity:1;fill-rule:evenodd;stroke:#000000;stroke-width:0.15060093;stroke-dasharray:none"
       id="path24"
       cx="57.01189"
       cy="63.058823"
       r="0.5" />
    <text
       xml:space="preserve"
       style="font-size:4.23333px;line-height:0;font-family:Arial;-inkscape-font-specification:'Arial, Normal';fill:#000000;fill-opacity:1;fill-rule:evenodd;stroke:#000000;stroke-width:0.15060093;stroke-dasharray:none"
       x="51.900951"
       y="66.979828"
       id="text24"><tspan
         sodipodi:role="line"
         id="tspan24"
         style="stroke-width:0.15060093;stroke-dasharray:none"
         x="51.900951"
         y="66.979828">$u$</tspan></text>
    <path
       style="fill:none;fill-opacity:1;fill-rule:evenodd;stroke:#000000;stroke-width:0.150601;stroke-dasharray:none"
       d="m 141.46687,57.357864 0.0444,-0.118248"
       id="path25"
       sodipodi:nodetypes="cc" />
    <path
       style="fill:none;fill-opacity:1;fill-rule:evenodd;stroke:#000000;stroke-width:0.351;stroke-dasharray:none;marker-start:url(#marker15);marker-end:url(#Triangle)"
       d="m 141.84871,52.027724 -0.47704,5.306341 4.78469,-0.02625"
       id="path26"
       sodipodi:nodetypes="ccc" />
    <circle
       style="fill:#000000;fill-opacity:1;fill-rule:evenodd;stroke:#000000;stroke-width:0.15060093;stroke-dasharray:none"
       id="path27"
       cx="141.30621"
       cy="57.334068"
       r="0.5" />
    <path
       style="opacity:1;fill:#000000;fill-opacity:0;fill-rule:evenodd;stroke:#000000;stroke-width:0.35140211;stroke-dasharray:none;marker-end:url(#marker15)"
       d="M 79.777436,69.462776 C 94.121257,49.639293 116.03991,64.950114 118.61857,67.528778"
       id="path28" />
    <text
       xml:space="preserve"
       style="font-size:4.23333px;line-height:0;font-family:Arial;-inkscape-font-specification:'Arial, Normal';opacity:1;fill:#000000;fill-opacity:0;fill-rule:evenodd;stroke:#000000;stroke-width:0.3514011;stroke-dasharray:none"
       x="96.216423"
       y="55.602455"
       id="text28"><tspan
         sodipodi:role="line"
         id="tspan28"
         style="stroke-width:0.3514011;stroke-dasharray:none"
         x="96.216423"
         y="55.602455">$g$</tspan></text>
    <path
       d="m 138.42893,63.62875 c -0.0381,-0.433753 -0.0725,-0.878622 -0.0961,-1.342037 -0.0132,-0.259816 -0.0241,-0.523615 -0.0315,-0.79065 -0.002,-0.06421 -0.002,-0.130252 -0.003,-0.19482 -0.17857,0.0024 -0.35801,0.0062 -0.53537,0.0072 -0.35541,0.002 -0.70834,0.0011 -1.0573,-0.0031 -0.34896,-0.0042 -0.69417,-0.01179 -1.03456,-0.02274 -0.063,-0.002 -0.1234,-0.006 -0.18604,-0.0083 0.001,0.243921 0.005,0.48678 0.0114,0.726054 0.007,0.267035 0.0178,0.530834 0.031,0.79065 0.014,0.275165 0.0379,0.531528 0.0574,0.79685 0.0639,0.0075 0.12168,0.01947 0.18707,0.02584 0.26101,0.02543 0.53334,0.04223 0.81597,0.05116 0.28262,0.0089 0.57526,0.0099 0.87643,0.0041 0.30117,-0.0058 0.61094,-0.01843 0.92759,-0.03721 0.0122,-7.21e-4 0.025,-0.0024 0.0372,-0.0031 z"
       style="fill:none;fill-opacity:0;fill-rule:evenodd;stroke:#000000;stroke-width:0.351;stroke-dasharray:none"
       id="path75" />
    <path
       d="m 138.29819,61.301243 c -0.005,-0.203977 -0.009,-0.408301 -0.009,-0.615466 -7.7e-4,-0.272743 0.002,-0.547817 0.009,-0.824756 0.007,-0.276939 0.0177,-0.555468 0.0331,-0.835091 0.0153,-0.279624 0.0352,-0.560497 0.06,-0.841293 0.0238,-0.270977 0.0529,-0.542184 0.0863,-0.81287 -0.28751,7.11e-4 -0.5747,8.16e-4 -0.85783,-0.0026 -0.34896,-0.0042 -0.69417,-0.01127 -1.03456,-0.02222 -0.28179,-0.0091 -0.55793,-0.02211 -0.83251,-0.03617 -0.0269,0.178547 -0.0551,0.356693 -0.0775,0.535885 -0.035,0.280456 -0.0647,0.561529 -0.0894,0.842325 -0.0247,0.280796 -0.0446,0.561669 -0.06,0.841293 -0.0153,0.279623 -0.0262,0.558152 -0.0331,0.835091 -0.007,0.276939 -0.01,0.552013 -0.009,0.824756 8e-5,0.02835 0.001,0.05593 0.002,0.08423 0.0626,0.0023 0.12307,0.0062 0.18604,0.0083 0.34039,0.01095 0.6856,0.01855 1.03456,0.02274 0.34896,0.0042 0.70189,0.0051 1.0573,0.0031 0.17736,-9.98e-4 0.3568,-0.0048 0.53537,-0.0072 z"
       style="fill:none;fill-opacity:0;fill-rule:evenodd;stroke:#000000;stroke-width:0.351;stroke-dasharray:none"
       id="path72" />
    <path
       d="m 141.60548,63.291819 c -0.0297,-0.263073 -0.0617,-0.51629 -0.0873,-0.7953 -0.0383,-0.416841 -0.0682,-0.856375 -0.0935,-1.302246 -0.14043,0.0073 -0.27845,0.01763 -0.41909,0.02429 -0.72402,0.03428 -1.45042,0.06021 -2.1699,0.07545 -0.18021,0.0038 -0.35817,0.0048 -0.53743,0.0072 0.001,0.06457 0.001,0.130615 0.003,0.19482 0.007,0.267035 0.0183,0.530834 0.0315,0.79065 0.0236,0.463415 0.058,0.908284 0.0961,1.342037 0.305,-0.0185 0.61582,-0.04197 0.93224,-0.0708 0.32906,-0.02998 0.6636,-0.06497 1.00201,-0.104387 0.3384,-0.03942 0.68058,-0.08314 1.02526,-0.130224 0.072,-0.0098 0.14489,-0.0214 0.21704,-0.03152 z"
       style="fill:none;fill-opacity:0;fill-rule:evenodd;stroke:#000000;stroke-width:0.351;stroke-dasharray:none"
       id="path76" />
    <path
       d="m 142.18219,53.036114 c -0.0522,0.173521 -0.10603,0.346331 -0.15245,0.522449 -0.0712,0.270368 -0.13603,0.543829 -0.1943,0.819072 -0.0583,0.275242 -0.11039,0.552351 -0.15658,0.830957 -0.004,0.02576 -0.007,0.05174 -0.0114,0.07751 0.53154,-0.02837 1.06392,-0.05662 1.5875,-0.0925 0.59239,-0.04059 1.17112,-0.08715 1.74408,-0.134875 0.0269,-0.1435 0.051,-0.287964 0.0811,-0.430465 0.0583,-0.275242 0.12254,-0.548186 0.19379,-0.818554 0.0712,-0.270368 0.14947,-0.538037 0.23461,-0.802019 0.0851,-0.263981 0.17707,-0.52423 0.27699,-0.780314 0.0529,-0.135556 0.11382,-0.266439 0.17105,-0.399459 -0.0505,0.0044 -0.0966,0.0096 -0.14728,0.01395 -0.67253,0.05784 -1.36372,0.111955 -2.06499,0.160197 -0.0134,0.01541 -0.0257,0.03175 -0.0393,0.04703 -0.10473,0.117837 -0.21447,0.231091 -0.33124,0.337447 -0.0584,0.05318 -0.11855,0.104821 -0.18087,0.153995 -0.0623,0.04917 -0.12692,0.09614 -0.19379,0.14056 -0.0669,0.04442 -0.13622,0.08616 -0.20825,0.125057 -0.072,0.0389 -0.14646,0.07485 -0.22428,0.107487 -0.0778,0.03263 -0.15867,0.06173 -0.24288,0.08733 -0.0453,0.01378 -0.0943,0.02356 -0.14159,0.03514 z"
       style="fill:none;fill-opacity:0;fill-rule:evenodd;stroke:#000000;stroke-width:0.351;stroke-dasharray:none"
       id="path64" />
    <path
       d="m 144.7164,57.107184 c -0.2151,0.01596 -0.42245,0.03472 -0.63975,0.04961 -0.71157,0.04876 -1.43347,0.09129 -2.15749,0.125574 -0.16022,0.0076 -0.31976,0.0098 -0.48008,0.01654 -0.0103,0.144002 -0.0231,0.28842 -0.031,0.432015 -0.0153,0.279624 -0.0257,0.558152 -0.0326,0.835091 -0.007,0.27694 -0.0101,0.552013 -0.009,0.824756 7.6e-4,0.272743 0.005,0.543252 0.0129,0.810287 0.007,0.267035 0.0178,0.530834 0.031,0.790649 0.004,0.06995 0.0105,0.133216 0.0145,0.202572 0.58251,-0.03018 1.16505,-0.062 1.7384,-0.101286 0.50323,-0.03448 0.99182,-0.07547 1.48156,-0.115238 -0.008,-0.174593 -0.0162,-0.348389 -0.0212,-0.526067 -0.007,-0.267035 -0.0116,-0.537026 -0.0124,-0.809769 -7.6e-4,-0.272743 0.002,-0.547817 0.009,-0.824756 0.007,-0.276939 0.0178,-0.555985 0.0331,-0.835608 0.0153,-0.279623 0.0352,-0.55998 0.0599,-0.840776 9.9e-4,-0.0112 0.003,-0.02239 0.004,-0.03359 z"
       style="fill:none;fill-opacity:0;fill-rule:evenodd;stroke:#000000;stroke-width:0.351;stroke-dasharray:none"
       id="path62" />
    <path
       d="m 148.41333,60.619631 c -0.38588,0.04205 -0.76343,0.08418 -1.1746,0.125574 -0.63567,0.06399 -1.29864,0.126339 -1.98076,0.185001 -0.19972,0.01718 -0.41064,0.03108 -0.6134,0.04754 0.004,0.08781 0.006,0.177641 0.0103,0.264583 0.0265,0.51963 0.0637,1.023654 0.108,1.505334 9.3e-4,0.01015 0.002,0.01881 0.003,0.02894 0.0862,-0.0188 0.17332,-0.0338 0.25838,-0.05633 0.16828,-0.04457 0.33454,-0.09651 0.49816,-0.155029 0.16363,-0.05852 0.32457,-0.123717 0.48318,-0.195337 0.1586,-0.07162 0.31498,-0.14972 0.46819,-0.233578 0.15321,-0.08386 0.30368,-0.173483 0.45113,-0.268717 0.14745,-0.09524 0.29174,-0.196039 0.43305,-0.301791 0.14131,-0.105751 0.27964,-0.216354 0.41445,-0.331762 0.1348,-0.115409 0.26585,-0.235462 0.39377,-0.359668 0.0847,-0.08221 0.16549,-0.169013 0.24701,-0.254765 z"
       style="fill:none;fill-opacity:0;fill-rule:evenodd;stroke:#000000;stroke-width:0.351;stroke-dasharray:none"
       id="path60" />
    <path
       d="m 148.68825,56.752167 c -0.18253,0.01909 -0.34834,0.03848 -0.53588,0.05736 -0.63567,0.06399 -1.29864,0.126339 -1.98076,0.185001 -0.47381,0.04075 -0.96593,0.07635 -1.45521,0.112655 -0.001,0.0112 -0.003,0.02239 -0.004,0.03359 -0.0247,0.280796 -0.0446,0.561153 -0.0599,0.840776 -0.0153,0.279623 -0.0262,0.558669 -0.0331,0.835608 -0.007,0.276939 -0.01,0.552013 -0.009,0.824756 7.6e-4,0.272743 0.005,0.542734 0.0124,0.809769 0.005,0.177678 0.0136,0.351474 0.0212,0.526067 0.20276,-0.01647 0.41368,-0.03037 0.6134,-0.04754 0.68212,-0.05866 1.34509,-0.121006 1.98076,-0.185001 0.41117,-0.0414 0.78872,-0.08352 1.1746,-0.125574 0.0417,-0.0438 0.0853,-0.08555 0.12609,-0.130225 0.0743,-0.08134 0.14459,-0.166547 0.21601,-0.25063 -0.0156,-0.223746 -0.0363,-0.437106 -0.0481,-0.66766 -0.0132,-0.259815 -0.0236,-0.523614 -0.031,-0.790649 -0.007,-0.267035 -0.0122,-0.537027 -0.0129,-0.80977 -7.6e-4,-0.272743 0.002,-0.548334 0.009,-0.825273 0.003,-0.130417 0.0105,-0.262156 0.0155,-0.393257 z"
       style="fill:none;fill-opacity:0;fill-rule:evenodd;stroke:#000000;stroke-width:0.351;stroke-dasharray:none"
       id="path58" />
    <path
       d="m 149.52179,51.471869 c -0.54869,0.0618 -1.12516,0.123994 -1.73116,0.185001 -0.58841,0.05924 -1.20524,0.116236 -1.83399,0.171049 -0.0572,0.13302 -0.11816,0.263903 -0.17105,0.399459 -0.0999,0.256084 -0.19185,0.516333 -0.27699,0.780314 -0.0851,0.263982 -0.16336,0.531651 -0.23461,0.802019 -0.0712,0.270368 -0.13552,0.543312 -0.19379,0.818554 -0.0302,0.142501 -0.0543,0.286965 -0.0811,0.430465 0.11528,-0.0096 0.23663,-0.01756 0.35088,-0.02739 0.68212,-0.05866 1.34509,-0.121006 1.98076,-0.185001 0.53114,-0.05347 1.02992,-0.107998 1.51774,-0.162264 0.002,-0.01894 0.004,-0.03791 0.006,-0.05684 0.035,-0.280457 0.0753,-0.56062 0.12144,-0.839225 0.0462,-0.278606 0.0983,-0.555715 0.15658,-0.830958 0.0583,-0.275242 0.12305,-0.548703 0.1943,-0.819071 0.0592,-0.224721 0.12606,-0.445712 0.19482,-0.666109 z"
       style="fill:none;fill-opacity:0;fill-rule:evenodd;stroke:#000000;stroke-width:0.351;stroke-dasharray:none"
       id="path53" />
    <path
       d="m 148.68825,56.752167 c -0.005,0.131101 -0.0123,0.26284 -0.0155,0.393257 -0.007,0.276939 -0.0101,0.55253 -0.009,0.825273 7.6e-4,0.272743 0.005,0.542735 0.0129,0.80977 0.007,0.267035 0.0178,0.530834 0.031,0.790649 0.0118,0.230554 0.0324,0.443914 0.0481,0.66766 0.0446,-0.05252 0.0914,-0.103055 0.13488,-0.15658 0.11305,-0.13922 0.22205,-0.28141 0.32711,-0.426847 0.10505,-0.145438 0.20614,-0.29414 0.30282,-0.444934 0.0967,-0.150795 0.18904,-0.304112 0.27699,-0.459404 0.0879,-0.155292 0.17128,-0.312359 0.25011,-0.471289 0.0788,-0.15893 0.15337,-0.319401 0.22273,-0.481108 0.0693,-0.161707 0.13377,-0.324717 0.19327,-0.488342 0.0595,-0.163624 0.11402,-0.327794 0.1633,-0.492476 0.0289,-0.09652 0.0517,-0.193259 0.077,-0.289905 -0.24683,0.0292 -0.472,0.05759 -0.73484,0.08733 -0.4034,0.04565 -0.84436,0.09133 -1.28054,0.136943 z"
       style="fill:none;fill-opacity:0;fill-rule:evenodd;stroke:#000000;stroke-width:0.351;stroke-dasharray:none"
       id="path59" />
    <path
       d="m 148.84845,54.684076 c -0.032,0.26159 -0.0602,0.523641 -0.0832,0.785482 -0.0247,0.280796 -0.0446,0.561152 -0.0599,0.840775 -0.008,0.147942 -0.0114,0.294543 -0.0171,0.441834 0.43618,-0.04561 0.87714,-0.09129 1.28054,-0.136943 0.26284,-0.02974 0.48801,-0.05813 0.73484,-0.08733 0.0179,-0.06826 0.0388,-0.136392 0.0548,-0.204639 0.0387,-0.164879 0.072,-0.329809 0.0997,-0.494026 0.0277,-0.164218 0.0498,-0.327715 0.0661,-0.49041 0.0164,-0.162695 0.0269,-0.324412 0.0315,-0.484725 0.004,-0.141012 0.002,-0.280552 -0.004,-0.419096 -0.0832,0.01045 -0.11925,0.01674 -0.20516,0.02739 -0.49177,0.06095 -1.02768,0.124895 -1.5999,0.189652 -0.0941,0.01065 -0.20269,0.02136 -0.29869,0.03204 z"
       style="fill:none;fill-opacity:0;fill-rule:evenodd;stroke:#000000;stroke-width:0.351;stroke-dasharray:none"
       id="path56" />
    <path
       d="m 149.52179,51.471869 c -0.0688,0.220397 -0.13559,0.441388 -0.19482,0.666109 -0.0712,0.270368 -0.13603,0.543829 -0.1943,0.819071 -0.0583,0.275243 -0.1104,0.552352 -0.15658,0.830958 -0.0462,0.278605 -0.0864,0.558768 -0.12144,0.839225 -0.002,0.01893 -0.004,0.03791 -0.006,0.05684 0.096,-0.01068 0.20459,-0.02139 0.29869,-0.03204 0.57222,-0.06476 1.10813,-0.128704 1.5999,-0.189652 0.0859,-0.01065 0.12201,-0.01694 0.20516,-0.02739 -7.2e-4,-0.01896 3.8e-4,-0.03845 -5.2e-4,-0.05736 -0.007,-0.157071 -0.0209,-0.31212 -0.0408,-0.465088 -0.0199,-0.152968 -0.0458,-0.304163 -0.0786,-0.452169 -0.0327,-0.148006 -0.0719,-0.292932 -0.11782,-0.435116 -0.0459,-0.142183 -0.0986,-0.281527 -0.15813,-0.417028 -0.0595,-0.135502 -0.12603,-0.267366 -0.19948,-0.395325 -0.0734,-0.12796 -0.15408,-0.251996 -0.24184,-0.371554 -0.0878,-0.119557 -0.1828,-0.234386 -0.28526,-0.344681 -0.0174,-0.0188 -0.0384,-0.03523 -0.0563,-0.05374 -0.0589,0.0067 -0.10724,0.01288 -0.16692,0.01964 -0.0267,0.003 -0.0579,0.0063 -0.0847,0.0093 z"
       style="fill:none;fill-opacity:0;fill-rule:evenodd;stroke:#000000;stroke-width:0.351;stroke-dasharray:none"
       id="path55" />
    <path
       d="m 141.42461,61.194273 c -0.004,-0.06936 -0.0109,-0.132623 -0.0145,-0.202572 -0.0132,-0.259815 -0.0236,-0.523614 -0.031,-0.790649 -0.007,-0.267035 -0.0122,-0.537544 -0.0129,-0.810287 -7.6e-4,-0.272743 0.002,-0.547816 0.009,-0.824756 0.007,-0.276939 0.0172,-0.555467 0.0326,-0.835091 0.008,-0.143595 0.0207,-0.288013 0.031,-0.432015 -0.56415,0.02372 -1.12904,0.04705 -1.6893,0.05891 -0.35974,0.0076 -0.71791,0.01247 -1.07332,0.01447 -0.067,3.77e-4 -0.13262,-6.82e-4 -0.19947,-5.17e-4 -0.0334,0.270686 -0.0625,0.541893 -0.0863,0.81287 -0.0247,0.280796 -0.0446,0.561669 -0.06,0.841293 -0.0153,0.279623 -0.0262,0.558152 -0.0331,0.835091 -0.007,0.276939 -0.01,0.552013 -0.009,0.824756 5.8e-4,0.207165 0.005,0.411489 0.009,0.615466 0.17926,-0.0024 0.35722,-0.0034 0.53743,-0.0072 0.71948,-0.01524 1.44588,-0.04116 2.1699,-0.07545 0.14064,-0.0067 0.27866,-0.01701 0.41909,-0.02429 z"
       style="fill:none;fill-opacity:0;fill-rule:evenodd;stroke:#000000;stroke-width:0.351;stroke-dasharray:none"
       id="path70" />
    <path
       d="m 138.82322,55.396177 c -0.0211,0.09228 -0.0455,0.183178 -0.0651,0.275952 -0.0583,0.275243 -0.1104,0.552868 -0.15658,0.831474 -0.0462,0.278606 -0.0864,0.558252 -0.12144,0.838709 -0.001,0.0098 -0.002,0.01965 -0.003,0.02945 0.0668,-1.65e-4 0.13242,8.94e-4 0.19947,5.17e-4 0.35541,-0.002 0.71358,-0.0069 1.07332,-0.01447 0.56026,-0.01187 1.12515,-0.03519 1.6893,-0.05891 0.01,-0.136412 0.0169,-0.272679 0.0289,-0.409277 0.0247,-0.280796 0.0544,-0.561869 0.0894,-0.842326 0.0318,-0.254529 0.0691,-0.508131 0.11007,-0.761194 -0.19084,0.01018 -0.37871,0.02402 -0.56999,0.03307 -0.72402,0.03428 -1.4499,0.06021 -2.16938,0.07545 -0.0352,7.44e-4 -0.0698,8.57e-4 -0.1049,0.0016 z"
       style="fill:none;fill-opacity:0;fill-rule:evenodd;stroke:#000000;stroke-width:0.15060093;stroke-dasharray:none"
       id="path71" />
    <path
       d="m 135.75209,57.310789 c 0.27458,0.01406 0.55072,0.02711 0.83251,0.03617 0.34039,0.01095 0.6856,0.01803 1.03456,0.02222 0.28313,0.0034 0.57032,0.0033 0.85783,0.0026 0.001,-0.0098 0.002,-0.01965 0.003,-0.02945 0.035,-0.280457 0.0753,-0.560103 0.12144,-0.838709 0.0462,-0.278606 0.0983,-0.556231 0.15658,-0.831474 0.0196,-0.09277 0.044,-0.183675 0.0651,-0.275952 -0.32428,0.0064 -0.64774,0.01111 -0.96842,0.01292 -0.35541,0.002 -0.70833,0.0011 -1.05729,-0.0031 -0.22242,-0.0027 -0.44031,-0.0086 -0.6594,-0.01395 -0.0677,0.259312 -0.12968,0.520689 -0.18551,0.784448 -0.0583,0.275243 -0.1104,0.552868 -0.15658,0.831474 -0.0167,0.100597 -0.0288,0.201923 -0.0439,0.302824 z"
       style="fill:none;fill-opacity:0;fill-rule:evenodd;stroke:#000000;stroke-width:0.351;stroke-dasharray:none"
       id="path69" />
    <path
       d="m 133.00756,57.056024 c 0.2207,0.0317 0.4418,0.06293 0.67231,0.0894 0.30192,0.03467 0.61227,0.06476 0.92914,0.09095 0.31687,0.02619 0.64027,0.04838 0.96996,0.06666 0.0568,0.0031 0.11602,0.0048 0.17312,0.0078 0.0152,-0.100901 0.0272,-0.202227 0.0439,-0.302824 0.0462,-0.278606 0.0983,-0.556231 0.15658,-0.831474 0.0558,-0.263759 0.11777,-0.525136 0.18551,-0.784448 -0.12465,-0.0031 -0.25173,-0.0043 -0.37517,-0.0083 -0.34039,-0.01095 -0.67593,-0.02564 -1.00562,-0.04393 -0.32969,-0.01828 -0.6531,-0.04047 -0.96997,-0.06666 -0.0633,-0.0052 -0.12281,-0.01253 -0.18552,-0.01809 -0.007,0.01931 -0.005,0.01189 -0.0129,0.03204 -0.0773,0.202299 -0.16622,0.446279 -0.25994,0.722953 -0.0937,0.276674 -0.19212,0.586125 -0.28732,0.919324 -0.0117,0.04081 -0.0225,0.0851 -0.0341,0.126607 z"
       style="fill:none;fill-opacity:0;fill-rule:evenodd;stroke:#000000;stroke-width:0.351;stroke-dasharray:none"
       id="path68" />
    <path
       d="m 144.99907,55.05873 c -0.57296,0.04772 -1.15169,0.09428 -1.74408,0.134875 -0.52358,0.03588 -1.05596,0.06413 -1.5875,0.0925 -0.0409,0.253063 -0.0783,0.506665 -0.11007,0.761194 -0.035,0.280457 -0.0647,0.56153 -0.0894,0.842326 -0.012,0.136598 -0.0192,0.272865 -0.0289,0.409277 0.16032,-0.0067 0.31986,-0.0089 0.48008,-0.01654 0.72402,-0.03428 1.44592,-0.07682 2.15749,-0.125574 0.2173,-0.01489 0.42465,-0.03365 0.63975,-0.04961 0.0241,-0.269612 0.0522,-0.539465 0.0858,-0.808736 0.035,-0.280457 0.0753,-0.560103 0.12144,-0.838709 0.0223,-0.134364 0.0504,-0.267336 0.0754,-0.401009 z"
       style="fill:none;fill-opacity:0;fill-rule:evenodd;stroke:#000000;stroke-width:0.351;stroke-dasharray:none"
       id="path63" />
    <path
       d="m 148.84845,54.684076 c -0.48782,0.05427 -0.9866,0.108792 -1.51774,0.162264 -0.63567,0.064 -1.29864,0.126339 -1.98076,0.185001 -0.11425,0.0098 -0.2356,0.01779 -0.35088,0.02739 -0.025,0.133673 -0.0532,0.266645 -0.0754,0.401009 -0.0462,0.278606 -0.0864,0.558252 -0.12144,0.838709 -0.0336,0.269271 -0.0617,0.539124 -0.0858,0.808736 0.48928,-0.03631 0.9814,-0.07191 1.45521,-0.112655 0.68212,-0.05866 1.34509,-0.121006 1.98076,-0.185001 0.18754,-0.01888 0.35335,-0.03827 0.53588,-0.05736 0.006,-0.147291 0.009,-0.293892 0.0171,-0.441834 0.0153,-0.279623 0.0352,-0.559979 0.0599,-0.840775 0.023,-0.261841 0.0512,-0.523892 0.0832,-0.785482 z"
       style="fill:none;fill-opacity:0;fill-rule:evenodd;stroke:#000000;stroke-width:0.351;stroke-dasharray:none"
       id="path57" />
    <path
       d="m 133.60183,55.2551 c 0.0627,0.0056 0.12226,0.01286 0.18552,0.01809 0.31687,0.02619 0.64028,0.04838 0.96997,0.06666 0.32969,0.01828 0.66523,0.03297 1.00562,0.04393 0.12344,0.004 0.25052,0.0052 0.37517,0.0083 0.003,-0.01129 0.005,-0.02283 0.008,-0.03411 0.0713,-0.270369 0.14948,-0.538037 0.23461,-0.802019 0.0851,-0.263981 0.17759,-0.52423 0.27751,-0.780314 0.0999,-0.256083 0.20737,-0.507802 0.32297,-0.754476 0.0299,-0.06375 0.0652,-0.124008 0.0961,-0.187068 -0.12229,0.02857 -0.24736,0.06273 -0.37879,0.107487 -0.14414,0.04909 -0.29478,0.108434 -0.4532,0.179834 -0.15842,0.0714 -0.32462,0.154977 -0.50074,0.251664 -0.17613,0.09669 -0.36186,0.206813 -0.55914,0.331762 -0.19728,0.12495 -0.406,0.26446 -0.62787,0.420647 -0.22187,0.156187 -0.45704,0.328948 -0.70694,0.519348 0,0 -0.10672,0.241783 -0.24908,0.610298 z"
       style="fill:none;fill-opacity:0;fill-rule:evenodd;stroke:#000000;stroke-width:0.351;stroke-dasharray:none"
       id="path67" />
    <path
       d="m 137.07759,52.83406 c -0.031,0.06306 -0.0662,0.123315 -0.0961,0.187068 -0.1156,0.246674 -0.22306,0.498393 -0.32297,0.754476 -0.0999,0.256084 -0.19237,0.516333 -0.27751,0.780314 -0.0851,0.263982 -0.16335,0.53165 -0.23461,0.802019 -0.003,0.01128 -0.005,0.02282 -0.008,0.03411 0.21909,0.0054 0.43698,0.01128 0.6594,0.01395 0.34896,0.0042 0.70188,0.0051 1.05729,0.0031 0.32068,-0.0018 0.64414,-0.0065 0.96842,-0.01292 0.0415,-0.181492 0.0814,-0.363365 0.12868,-0.542602 0.0712,-0.270369 0.14947,-0.538037 0.23461,-0.802019 0.0851,-0.263981 0.17758,-0.52423 0.2775,-0.780314 0.0408,-0.104529 0.0884,-0.204955 0.13177,-0.307991 -0.0672,-0.01079 -0.13797,-0.0211 -0.20257,-0.03204 -0.28113,-0.0476 -0.53928,-0.09556 -0.78806,-0.131258 -0.1244,-0.01785 -0.24648,-0.03248 -0.36794,-0.04289 -0.12146,-0.01041 -0.24234,-0.01654 -0.36432,-0.01654 -0.12197,0 -0.24511,0.0063 -0.37104,0.01964 -0.12592,0.01339 -0.25425,0.03381 -0.38757,0.06356 -0.0118,0.0026 -0.0249,0.0076 -0.0367,0.01034 z"
       style="fill:none;fill-opacity:0;fill-rule:evenodd;stroke:#000000;stroke-width:0.351;stroke-dasharray:none"
       id="path66" />
    <path
       d="m 139.59578,52.963251 c -0.0434,0.103036 -0.091,0.203462 -0.13177,0.307991 -0.0999,0.256084 -0.19237,0.516333 -0.2775,0.780314 -0.0851,0.263982 -0.16336,0.53165 -0.23461,0.802019 -0.0472,0.179237 -0.0872,0.36111 -0.12868,0.542602 0.0351,-6.93e-4 0.0697,-8.06e-4 0.1049,-0.0016 0.71948,-0.01524 1.44536,-0.04116 2.16938,-0.07545 0.19128,-0.0091 0.37915,-0.02289 0.56999,-0.03307 0.004,-0.02578 0.007,-0.05176 0.0114,-0.07751 0.0462,-0.278606 0.0983,-0.555715 0.15658,-0.830957 0.0583,-0.275243 0.12305,-0.548704 0.1943,-0.819072 0.0464,-0.176118 0.10021,-0.348928 0.15245,-0.522449 -0.0406,0.0099 -0.0793,0.02226 -0.12144,0.03049 -0.0912,0.01783 -0.1864,0.03153 -0.28525,0.04082 -0.0989,0.0093 -0.20141,0.01395 -0.30851,0.01395 -0.2142,0 -0.41605,-0.0056 -0.60668,-0.01602 -0.19064,-0.01041 -0.37004,-0.02556 -0.54054,-0.04341 -0.1705,-0.01785 -0.33194,-0.03867 -0.48576,-0.06098 -0.0831,-0.01206 -0.1592,-0.02503 -0.23823,-0.03772 z"
       style="fill:none;fill-opacity:0;fill-rule:evenodd;stroke:#000000;stroke-width:0.351;stroke-dasharray:none"
       id="path65" />
    <path
       d="m 149.58691,51.263613 c -0.0299,-0.02709 -0.0559,-0.05683 -0.0868,-0.0832 -0.11751,-0.100174 -0.24274,-0.195029 -0.37569,-0.284221 -0.13294,-0.08919 -0.27345,-0.172764 -0.4222,-0.250114 -0.14874,-0.07735 -0.29204,-0.147098 -0.42994,-0.210323 -0.1379,-0.06322 -0.27076,-0.119644 -0.39843,-0.169498 -0.12767,-0.04986 -0.2504,-0.0935 -0.36845,-0.130742 -0.11805,-0.03724 -0.23098,-0.06815 -0.34003,-0.09353 -0.0759,-0.01767 -0.1473,-0.02911 -0.21911,-0.04134 -0.0137,0.02019 -0.0298,0.03862 -0.0434,0.05891 -0.14965,0.223318 -0.29053,0.453095 -0.42271,0.688847 -0.13218,0.235751 -0.25544,0.47783 -0.37104,0.724503 -0.0544,0.116099 -0.10156,0.236746 -0.15244,0.355017 0.62875,-0.05481 1.24558,-0.111811 1.83399,-0.171049 0.606,-0.06101 1.18247,-0.123204 1.73116,-0.185001 0.014,-0.04477 0.0249,-0.09082 0.0393,-0.135392 0.008,-0.02463 0.0178,-0.0483 0.0258,-0.07286 z"
       style="fill:none;fill-opacity:0;fill-rule:evenodd;stroke:#000000;stroke-width:0.351;stroke-dasharray:none"
       id="path54" />
    <path
       d="m 143.74437,52.002069 c 0.70127,-0.04824 1.39246,-0.102359 2.06499,-0.160197 0.0507,-0.0044 0.0968,-0.0096 0.14728,-0.01395 0.0509,-0.118271 0.098,-0.238918 0.15244,-0.355017 0.1156,-0.246673 0.23886,-0.488752 0.37104,-0.724503 0.13218,-0.235752 0.27306,-0.465529 0.42271,-0.688847 0.0136,-0.0203 0.0297,-0.03872 0.0434,-0.05891 -0.0313,-0.0053 -0.065,-0.01375 -0.0956,-0.01809 -0.10067,-0.01428 -0.19701,-0.02294 -0.28991,-0.02687 -0.0929,-0.0039 -0.18245,-0.0031 -0.2682,0.0026 -0.0857,0.0057 -0.1678,0.01599 -0.24701,0.03049 -0.0792,0.0145 -0.15564,0.03323 -0.22893,0.05581 -0.0733,0.02258 -0.14337,0.04915 -0.21135,0.07906 -0.068,0.02991 -0.1336,0.06325 -0.19689,0.09973 -0.0633,0.03648 -0.12423,0.07604 -0.18345,0.118339 -0.0592,0.0423 -0.11684,0.08751 -0.1726,0.134876 -0.0558,0.04736 -0.10986,0.09664 -0.16278,0.148311 -0.10585,0.103335 -0.20672,0.214705 -0.30489,0.330729 -0.19635,0.23205 -0.382,0.483636 -0.57723,0.730188 -0.085,0.107295 -0.17292,0.212788 -0.26303,0.31626 z"
       style="fill:none;fill-opacity:0;fill-rule:evenodd;stroke:#000000;stroke-width:0.351;stroke-dasharray:none"
       id="path52" />
  </g>
</svg>
