<?xml version="1.0" encoding="UTF-8" standalone="no"?>
<!-- Created with Inkscape (http://www.inkscape.org/) -->

<svg
   width="210mm"
   height="297mm"
   viewBox="0 0 210 297"
   version="1.1"
   id="svg1"
   inkscape:version="1.3 (0e150ed6c4, 2023-07-21)"
   sodipodi:docname="mobius.svg"
   xmlns:inkscape="http://www.inkscape.org/namespaces/inkscape"
   xmlns:sodipodi="http://sodipodi.sourceforge.net/DTD/sodipodi-0.dtd"
   xmlns="http://www.w3.org/2000/svg"
   xmlns:svg="http://www.w3.org/2000/svg">
  <sodipodi:namedview
     id="namedview1"
     pagecolor="#ffffff"
     bordercolor="#000000"
     borderopacity="0.25"
     inkscape:showpageshadow="2"
     inkscape:pageopacity="0.0"
     inkscape:pagecheckerboard="0"
     inkscape:deskcolor="#d1d1d1"
     inkscape:document-units="mm"
     inkscape:zoom="5.5584862"
     inkscape:cx="256.27481"
     inkscape:cy="253.93604"
     inkscape:window-width="2560"
     inkscape:window-height="1334"
     inkscape:window-x="-11"
     inkscape:window-y="-11"
     inkscape:window-maximized="1"
     inkscape:current-layer="layer1" />
  <defs
     id="defs1" />
  <g
     inkscape:label="图层 1"
     inkscape:groupmode="layer"
     id="layer1">
    <path
       style="fill:none;fill-rule:evenodd;stroke:#000000;stroke-width:0.751;stroke-dasharray:none"
       d="M 39.851314,64.623752 V 47.660017 c 1.346329,-10.501359 30.491104,-14.91718 55.01234,-14.91718 21.231576,0 38.528766,7.903179 38.528766,22.679686 0,11.234587 -9.85842,23.491445 -38.007052,23.491445 -24.064785,0 -55.534054,-1.655346 -55.534054,-14.290216 z"
       id="path1"
       sodipodi:nodetypes="ccsssc" />
    <path
       style="fill:none;fill-rule:evenodd;stroke:#000000;stroke-width:0.751001;stroke-dasharray:none"
       d="m 54.022336,56.432648 c 21.03611,-5.636609 27.44272,-7.493619 41.499648,-7.493619 7.506166,0 20.868086,0.379643 20.868086,7.674071 0,8.758437 -10.83841,7.67407 -20.935406,7.67407 -11.254709,0 -41.432328,-7.854522 -41.432328,-7.854522 z"
       id="path2"
       sodipodi:nodetypes="csssc" />
    <path
       style="fill:none;fill-rule:evenodd;stroke:#000000;stroke-width:0.751001;stroke-dasharray:none"
       d="M 54.022336,56.432648 C 47.15535,54.516057 39.851314,52.905929 39.851314,47.660017"
       id="path3"
       sodipodi:nodetypes="cc" />
    <path
       style="fill:none;fill-rule:evenodd;stroke:#000000;stroke-width:0.751001;stroke-dasharray:1.502, 0.751001;stroke-dashoffset:0"
       d="m 54.022336,56.432648 c -5.074508,1.35971 -14.171022,6.21399 -14.171022,8.191103"
       id="path4"
       sodipodi:nodetypes="cc" />
    <path
       style="fill:none;fill-rule:evenodd;stroke:#000000;stroke-width:0.551;stroke-dasharray:none;stroke-dashoffset:0"
       d="m 39.851314,57.824795 c 0,9.429899 41.922235,14.468867 53.998542,14.468867 11.029104,0 30.416234,-1.457423 30.416234,-16.017145 0,-8.466936 -8.2126,-16.021304 -25.984133,-16.021304 -19.01421,0 -46.701054,8.138285 -54.593543,12.695016"
       id="path5"
       sodipodi:nodetypes="csssc" />
    <path
       style="fill:none;fill-rule:evenodd;stroke:#000000;stroke-width:0.551;stroke-dasharray:1.102, 0.551;stroke-dashoffset:0"
       d="m 43.688414,52.950229 c -2.405086,1.388577 -3.8371,2.153781 -3.8371,4.874566"
       id="path6"
       sodipodi:nodetypes="cc" />
    <text
       xml:space="preserve"
       style="font-size:4.23333px;line-height:0;font-family:Arial;-inkscape-font-specification:'Arial, Normal';fill:none;fill-rule:evenodd;stroke:#000000;stroke-width:0.551;stroke-dasharray:none;stroke-dashoffset:0"
       x="56.263069"
       y="74.779427"
       id="text6"><tspan
         sodipodi:role="line"
         id="tspan6"
         style="stroke-width:0.551;stroke-dasharray:none"
         x="56.263069"
         y="74.779427">$M$</tspan></text>
    <text
       xml:space="preserve"
       style="font-size:4.23333px;line-height:0;font-family:Arial;-inkscape-font-specification:'Arial, Normal';fill:none;fill-rule:evenodd;stroke:#000000;stroke-width:0.551;stroke-dasharray:none;stroke-dashoffset:0"
       x="62.260658"
       y="67.258644"
       id="text7"><tspan
         sodipodi:role="line"
         id="tspan7"
         style="stroke-width:0.551"
         x="62.260658"
         y="67.258644">$N$</tspan></text>
  </g>
</svg>
