<?xml version="1.0" encoding="UTF-8" standalone="no"?>
<!-- Created with Inkscape (http://www.inkscape.org/) -->

<svg
   width="151.77342mm"
   height="58.493214mm"
   viewBox="0 0 151.77342 58.493214"
   version="1.1"
   id="svg1"
   sodipodi:docname="orient2.svg"
   inkscape:version="1.3 (0e150ed6c4, 2023-07-21)"
   xmlns:inkscape="http://www.inkscape.org/namespaces/inkscape"
   xmlns:sodipodi="http://sodipodi.sourceforge.net/DTD/sodipodi-0.dtd"
   xmlns="http://www.w3.org/2000/svg"
   xmlns:svg="http://www.w3.org/2000/svg">
  <sodipodi:namedview
     id="namedview1"
     pagecolor="#ffffff"
     bordercolor="#000000"
     borderopacity="0.25"
     inkscape:showpageshadow="2"
     inkscape:pageopacity="0.0"
     inkscape:pagecheckerboard="0"
     inkscape:deskcolor="#d1d1d1"
     inkscape:document-units="mm"
     inkscape:zoom="2.7792431"
     inkscape:cx="110.64163"
     inkscape:cy="107.76315"
     inkscape:window-width="2560"
     inkscape:window-height="1334"
     inkscape:window-x="-11"
     inkscape:window-y="-11"
     inkscape:window-maximized="1"
     inkscape:current-layer="layer1" />
  <defs
     id="defs1">
    <marker
       style="overflow:visible"
       id="Triangle"
       refX="0"
       refY="0"
       orient="auto-start-reverse"
       inkscape:stockid="Triangle arrow"
       markerWidth="1"
       markerHeight="0.5"
       viewBox="0 0 1 1"
       inkscape:isstock="true"
       inkscape:collect="always"
       preserveAspectRatio="none">
      <path
         transform="scale(0.5)"
         style="fill:context-stroke;fill-rule:evenodd;stroke:context-stroke;stroke-width:1pt"
         d="M 5.77,0 -2.88,5 V -5 Z"
         id="path135" />
    </marker>
  </defs>
  <g
     inkscape:label="图层 1"
     inkscape:groupmode="layer"
     id="layer1"
     transform="translate(-18.438653,-20.238151)">
    <path
       d="m 34.869755,57.218773 c 0.172393,-3.47e-4 0.334878,-0.02118 0.487309,-0.06201 0.152431,-0.04084 0.295116,-0.101664 0.428914,-0.180868 0.133799,-0.0792 0.258675,-0.177039 0.375171,-0.292488 0.116497,-0.115449 0.224521,-0.248336 0.325045,-0.397909 0.100524,-0.149572 0.193172,-0.315553 0.279053,-0.497127 0.08588,-0.181574 0.165144,-0.378691 0.237711,-0.590145 0.07257,-0.211454 0.138887,-0.437233 0.199471,-0.676444 0.06059,-0.239212 0.115434,-0.491696 0.165365,-0.756543 0.09986,-0.529694 0.17972,-1.108556 0.244946,-1.72806 0.06523,-0.619504 0.115867,-1.279634 0.157097,-1.971973 0.08246,-1.384677 0.127463,-2.898437 0.177767,-4.472595 0.02515,-0.787079 0.05168,-1.589318 0.08475,-2.398303 0.03307,-0.808986 0.0724,-1.624695 0.124023,-2.438611 0.02857,-0.450439 0.07174,-0.895677 0.108521,-1.343587 -0.07713,0.01882 -0.154123,0.03777 -0.230994,0.05684 -1.460543,0.420101 -2.86432,0.887394 -4.202327,1.398881 -1.338131,0.511536 -2.607608,1.066176 -3.800285,1.660363 -1.192617,0.594225 -2.305869,1.22672 -3.332613,1.893425 -1.026747,0.666692 -1.964786,1.366165 -2.808098,2.093929 -0.843318,0.727808 -1.59009,1.482348 -2.235522,2.258777 -0.645281,0.776441 -1.187838,1.573101 -1.62419,2.384867 -0.436642,0.811597 -0.766181,1.636567 -0.986503,2.469617 -0.22003,0.833186 -0.330337,1.672657 -0.330213,2.513025 -1.24e-4,0.840368 0.110183,1.679839 0.330213,2.513025 0.220277,0.833223 0.549816,1.658366 0.986503,2.470133 0.436395,0.811591 0.978952,1.608078 1.62419,2.384351 0.645432,0.776429 1.392204,1.530969 2.235522,2.258777 0.843312,0.727764 1.781351,1.427237 2.808098,2.093929 1.026744,0.666705 2.139996,1.299199 3.332613,1.893424 1.192677,0.594187 2.462154,1.148828 3.800285,1.660364 1.337977,0.511664 2.741755,0.97913 4.202327,1.399398 1.460623,0.420103 2.974881,0.792107 4.533057,1.113627 1.558074,0.321674 3.156744,0.592175 4.785754,0.809769 1.629166,0.217374 3.285148,0.381367 4.95732,0.490927 1.672184,0.109737 3.356994,0.164804 5.04362,0.164847 1.686626,-4.3e-5 3.371436,-0.05511 5.04362,-0.164847 1.671998,-0.109571 3.327807,-0.273564 4.956803,-0.490927 1.629185,-0.217583 3.228029,-0.488085 4.786271,-0.809769 1.558176,-0.32152 3.072434,-0.693524 4.533057,-1.113627 1.460572,-0.420268 2.864351,-0.887734 4.202328,-1.399398 1.338131,-0.511536 2.607608,-1.066177 3.800284,-1.660364 1.192617,-0.594225 2.30587,-1.226719 3.332614,-1.893424 1.026747,-0.666692 1.964786,-1.366165 2.808097,-2.093929 0.843142,-0.727815 1.589741,-1.482354 2.235006,-2.258777 0.645413,-0.776267 1.188143,-1.572754 1.624707,-2.384351 0.436512,-0.811773 0.765879,-1.636915 0.985986,-2.470133 0.220202,-0.833181 0.330682,-1.672651 0.330729,-2.513025 -4.6e-5,-0.296397 -0.01383,-0.592755 -0.04134,-0.888835 -0.02745,-0.296196 -0.06863,-0.592036 -0.123507,-0.887284 -0.05489,-0.295306 -0.123464,-0.58994 -0.205672,-0.883667 -0.08219,-0.293725 -0.177988,-0.586464 -0.287321,-0.877983 -0.109352,-0.291452 -0.232203,-0.581606 -0.368453,-0.870231 -0.136206,-0.288486 -0.285763,-0.575366 -0.448551,-0.860412 -0.162891,-0.285176 -0.338983,-0.568438 -0.528133,-0.849561 -0.189097,-0.281169 -0.391206,-0.560124 -0.606165,-0.836641 -0.214992,-0.27647 -0.442774,-0.550428 -0.683162,-0.821656 -0.240393,-0.271248 -0.49333,-0.539693 -0.75861,-0.805119 -0.265128,-0.265502 -0.542532,-0.527916 -0.831991,-0.787032 -0.289553,-0.259062 -0.59108,-0.514756 -0.904338,-0.766878 -0.313326,-0.251924 -0.638285,-0.500209 -0.974617,-0.744657 -0.336406,-0.244609 -0.684108,-0.485314 -1.04283,-0.72192 -0.358481,-0.236765 -0.727893,-0.469371 -1.107943,-0.697632 -0.380256,-0.228053 -0.771034,-0.4517 -1.172022,-0.67076 -0.40083,-0.219158 -0.811767,-0.433672 -1.232483,-0.643372 -0.42075,-0.209563 -0.851157,-0.414256 -1.290877,-0.613916 -0.43981,-0.199789 -0.888826,-0.394489 -1.346688,-0.583943 C 81.58059,41.140849 81.114,40.956659 80.639057,40.777914 80.164145,40.599262 79.681013,40.4261 79.190049,40.258566 78.783678,40.121171 78.372086,39.98765 77.955499,39.858073 l -5.1e-5,-4.1e-5 c 4.46e-4,0.0026 0.0011,0.0051 0.0016,0.0078 0.146997,0.860296 0.28137,1.723633 0.40721,2.580721 0.12584,0.857087 0.243601,1.707881 0.357084,2.542997 0.226967,1.670231 0.437833,3.277748 0.668176,4.747514 0.115172,0.734883 0.235103,1.435239 0.364319,2.091862 0.129217,0.656622 0.267551,1.269229 0.419613,1.828829 0.07603,0.279799 0.155869,0.546375 0.239262,0.798401 0.08339,0.252025 0.170662,0.489677 0.262516,0.711584 0.09185,0.221907 0.187972,0.428091 0.289388,0.617533 0.101416,0.189442 0.2078,0.362133 0.319877,0.516765 0.112078,0.154632 0.230144,0.291283 0.353984,0.40876 0.123839,0.117477 0.253456,0.215546 0.390157,0.293522 0.136701,0.07798 0.280318,0.135953 0.430981,0.172083 0.150663,0.03613 0.308665,0.05044 0.47439,0.04237"
       style="fill-opacity:0;fill-rule:evenodd;stroke:#000000;stroke-width:0.551;stroke-dasharray:none"
       id="path18"
       sodipodi:nodetypes="csssssssssssssccscccccccccccscccccccccccccsccccccsscscccscccccccccccccccssssssssssssc" />
    <path
       d="m 46.874141,37.626638 c 0.06379,-0.15049 0.123435,-0.301736 0.193787,-0.451135 0.124186,-0.263721 0.258413,-0.525037 0.402043,-0.783932 0.14363,-0.258894 0.296593,-0.515151 0.45837,-0.767395 0.161776,-0.252244 0.331937,-0.500889 0.510563,-0.744657 0.178626,-0.243768 0.365477,-0.482768 0.559656,-0.716236 0.194178,-0.233467 0.395663,-0.461304 0.604097,-0.682645 0.208434,-0.221342 0.424046,-0.435981 0.645439,-0.643372 0.221393,-0.207391 0.448557,-0.407314 0.681612,-0.59893 0.233055,-0.191615 0.471782,-0.374789 0.715202,-0.548803 0.243419,-0.174015 0.491653,-0.338921 0.74414,-0.49351 0.252488,-0.15459 0.509204,-0.299193 0.769462,-0.432532 0.260259,-0.133339 0.524434,-0.255606 0.791167,-0.365869 0.266732,-0.110264 0.53631,-0.208159 0.808219,-0.293522 0.271909,-0.08536 0.545866,-0.157886 0.821655,-0.216525 0.275789,-0.05864 0.553102,-0.103754 0.831474,-0.133842 0.263564,-0.02849 0.529534,-0.0432 0.796851,-0.04496 0.267316,-0.0018 0.53621,0.0095 0.805635,0.03307 0.269425,0.02359 0.539364,0.05943 0.809253,0.10697 0.269889,0.04754 0.539511,0.106612 0.80822,0.176733 0.268708,0.07012 0.536651,0.151566 0.802535,0.24288 0.265883,0.09131 0.529752,0.192734 0.791166,0.303857 0.261413,0.111123 0.520364,0.231671 0.775663,0.361218 0.255299,0.129548 0.506936,0.267857 0.754476,0.414445 0.24754,0.146589 0.491018,0.301809 0.729154,0.464055 0.238136,0.162246 0.471061,0.331976 0.698149,0.508496 0.227088,0.176519 0.448097,0.359395 0.662492,0.548804 0.214395,0.189409 0.422126,0.385096 0.622184,0.58601 0.200058,0.200915 0.392633,0.407531 0.576709,0.618567 0.184076,0.211037 0.359617,0.426698 0.526066,0.646472 0.166449,0.219775 0.323594,0.443632 0.470772,0.67076 0.147178,0.227129 0.284566,0.457298 0.410828,0.690398 0.093,0.17169 0.178774,0.350777 0.258382,0.536918 0.07961,0.18614 0.15273,0.379464 0.219625,0.578776 0.04707,0.140257 0.07521,0.29921 0.116272,0.445451 m 9.909989,2.215369 c -0.146629,-0.85767 -0.305722,-1.7127 -0.482141,-2.554883 -0.176955,-0.844742 -0.370814,-1.67676 -0.586527,-2.487186 -0.107857,-0.405213 -0.221351,-0.805261 -0.340548,-1.198377 -0.119196,-0.393115 -0.244051,-0.779395 -0.375688,-1.158069 -0.131636,-0.378673 -0.269785,-0.749674 -0.414961,-1.11156 -0.145176,-0.361885 -0.297521,-0.714547 -0.457337,-1.057299 -0.159816,-0.342752 -0.327255,-0.675565 -0.502811,-0.996839 -0.175556,-0.321273 -0.358992,-0.631176 -0.551388,-0.928625 -0.192396,-0.29745 -0.393761,-0.582415 -0.604097,-0.853695 -0.210337,-0.27128 -0.430015,-0.528764 -0.659392,-0.771529 -0.244175,-0.258428 -0.497464,-0.509988 -0.759643,-0.753959 -0.26218,-0.243972 -0.533128,-0.48035 -0.811837,-0.709518 -0.278709,-0.229167 -0.565099,-0.451059 -0.858862,-0.665075 -0.293763,-0.214017 -0.594928,-0.420049 -0.902271,-0.618567 -0.307342,-0.198518 -0.621064,-0.389387 -0.940511,-0.572058 -0.319447,-0.182672 -0.644542,-0.357521 -0.974617,-0.523999 -0.330076,-0.166479 -0.66536,-0.324453 -1.00459,-0.47439 -0.33923,-0.149937 -0.682486,-0.291731 -1.029395,-0.42478 -0.346909,-0.133049 -0.697469,-0.257291 -1.050582,-0.373104 -0.353112,-0.115813 -0.70876,-0.223198 -1.066601,-0.321428 -0.357842,-0.09823 -0.717392,-0.187385 -1.078487,-0.267683 -0.361096,-0.0803 -0.723882,-0.151404 -1.086756,-0.213424 -0.362874,-0.06202 -0.726161,-0.115252 -1.089339,-0.158647 -0.363177,-0.04339 -0.7263,-0.07738 -1.088306,-0.101802 -0.362006,-0.02442 -0.722745,-0.03882 -1.082104,-0.04393 v 1.5e-5 c -0.35936,-0.0051 -0.717048,-6.15e-4 -1.072286,0.01395 -0.360463,0.01478 -0.722584,0.03951 -1.085722,0.07441 -0.363138,0.0349 -0.727603,0.07979 -1.091923,0.134359 -0.36432,0.05457 -0.728429,0.118961 -1.09244,0.192753 -0.364011,0.07379 -0.727646,0.157036 -1.089856,0.249597 -0.362209,0.09256 -0.723188,0.194529 -1.082104,0.305408 -0.358917,0.110879 -0.715571,0.230922 -1.069702,0.359668 -0.354132,0.128746 -0.705828,0.266216 -1.053683,0.412378 -0.347854,0.146162 -0.691893,0.300927 -1.031978,0.464054 -0.340086,0.163128 -0.676349,0.334538 -1.007174,0.514181 -0.330824,0.179642 -0.656612,0.367567 -0.976684,0.563273 -0.320072,0.195706 -0.634234,0.398979 -0.942062,0.610299 -0.307827,0.211319 -0.609213,0.430326 -0.903304,0.656807 -0.29409,0.226482 -0.581033,0.460573 -0.859896,0.701766 -0.278862,0.241193 -0.549694,0.489721 -0.811836,0.745174 -0.262142,0.255454 -0.515198,0.517769 -0.759127,0.787032 -0.24393,0.269263 -0.478574,0.545234 -0.7028,0.827857 -0.193187,0.2435 -0.375327,0.500669 -0.547253,0.769462 -0.171926,0.268793 -0.333765,0.549328 -0.485758,0.841292 -0.151994,0.291964 -0.29449,0.594943 -0.427881,0.907955 -0.133392,0.313012 -0.257502,0.635961 -0.373621,0.9679 -0.116119,0.331938 -0.223834,0.6729 -0.324011,1.021643 -0.100177,0.348743 -0.192972,0.705243 -0.278536,1.068668 -0.171128,0.726851 -0.31446,1.481278 -0.435116,2.254126 -0.120656,0.772849 -0.218384,1.564394 -0.299206,2.366264 -0.03609,0.358098 -0.05817,0.722735 -0.08785,1.084172"
       style="fill-opacity:0;fill-rule:evenodd;stroke:#000000;stroke-width:0.551;stroke-dasharray:none"
       id="path17"
       sodipodi:nodetypes="csssssssssssssssccssssssssssssssssccssssssssssssssssssssssssccsssssssssssssssssssssssssc" />
    <path
       d="m 66.373724,54.795622 c 0,0 0.253573,-0.826083 0.587045,-2.15129 0.166736,-0.662604 0.353298,-1.450129 0.538468,-2.321305 0.18517,-0.871177 0.368852,-1.826186 0.529167,-2.824117 0.08016,-0.498966 0.154831,-1.008625 0.220658,-1.523938 0.06583,-0.515314 0.122896,-1.036095 0.168982,-1.557528 0.04609,-0.521434 0.08087,-1.043819 0.101803,-1.561145 0.02093,-0.517326 0.02823,-1.029731 0.0186,-1.532723 -0.0096,-0.502992 -0.03604,-0.996416 -0.08165,-1.474846 -0.04561,-0.478429 -0.110411,-0.941804 -0.197404,-1.385445 -0.05638,-0.287543 -0.138297,-0.551233 -0.21394,-0.820621 l -0.117822,-0.01809 c -0.572313,-0.0812 -1.148314,-0.155811 -1.727543,-0.223759 -0.579308,-0.06784 -1.161685,-0.129011 -1.746664,-0.183451 -0.584926,-0.05447 -1.172299,-0.102194 -1.761649,-0.143144 -0.589338,-0.04108 -1.180502,-0.07536 -1.773019,-0.102836 -0.59256,-0.02733 -1.186309,-0.04783 -1.78077,-0.0615 -0.594397,-0.01373 -1.189351,-0.02063 -1.784387,-0.02067 -1.686626,4.4e-5 -3.371436,0.05511 -5.04362,0.164848 -1.672196,0.10973 -3.328178,0.273895 -4.95732,0.491443 -0.159861,0.02652 -0.319373,0.05357 -0.478524,0.08113 0.143961,-0.347133 -0.105744,0.23547 -0.148305,0.345207 -0.103446,0.266722 -0.196094,0.534638 -0.277502,0.802535 -0.100874,0.331953 -0.175873,0.66856 -0.227893,1.009241 -0.05202,0.340681 -0.08091,0.685288 -0.0894,1.033012 -0.0085,0.347724 0.0034,0.698535 0.03307,1.051615 0.02972,0.35308 0.07692,0.708302 0.139527,1.065052 0.0626,0.35675 0.140312,0.715102 0.230477,1.073836 0.09016,0.358734 0.193002,0.717905 0.305407,1.076937 0.224811,0.718063 0.488659,1.434919 0.770496,2.144055 0.281837,0.709136 0.581699,1.410827 0.877982,2.097546 0.296284,0.68672 0.589162,1.358884 0.857312,2.009697 0.268151,0.650813 0.511563,1.280122 0.709001,1.881539 0.09872,0.300708 0.185842,0.594219 0.258899,0.880049 0.07306,0.28583 0.132077,0.563759 0.17415,0.833024"
       style="fill-opacity:0;fill-rule:evenodd;stroke:#000000;stroke-width:0.551;stroke-dasharray:none"
       id="path19"
       sodipodi:nodetypes="csssssscssccccccccsccsssscssssssssc" />
    <circle
       style="fill:#000000;fill-opacity:0;fill-rule:evenodd;stroke:#000000;stroke-width:0.551;stroke-dasharray:none"
       id="path20"
       cx="146.74979"
       cy="52.756592"
       r="15" />
    <circle
       style="fill:#000000;fill-opacity:1;fill-rule:evenodd;stroke:#000000;stroke-width:0.551;stroke-dasharray:none"
       id="path21"
       cx="33.595665"
       cy="71.367867"
       r="0.5" />
    <circle
       style="fill:#000000;fill-opacity:1;fill-rule:evenodd;stroke:#000000;stroke-width:0.551;stroke-dasharray:none"
       id="path21-21"
       cx="161.55093"
       cy="54.959736"
       r="0.5" />
    <circle
       style="fill:#000000;fill-opacity:1;fill-rule:evenodd;stroke:#000000;stroke-width:0.551;stroke-dasharray:none"
       id="path21-2"
       cx="69.467171"
       cy="74.399048"
       r="0.5" />
    <path
       style="fill:#000000;fill-opacity:0;fill-rule:evenodd;stroke:#000000;stroke-width:0.350999"
       d="m 33.691864,71.456369 c 7.606752,-6.866273 9.025517,-9.344211 10.299409,-15.3818 1.024521,-4.855697 -3.587399,-9.803519 -2.57937,-14.662666 0.749075,-3.610875 4.454818,-5.930352 6.092787,-9.234379 1.150085,-2.319893 0.504237,-5.76974 2.570393,-7.330382 2.942649,-2.222689 7.719234,-2.263569 11.043174,-0.666398 2.380728,1.143953 2.508268,4.822086 4.56959,6.473584 2.575582,2.063514 7.485312,0.952045 9.139179,3.807992 2.148023,3.709272 -0.913675,8.528758 -1.618396,12.756769 -0.550603,3.303374 -3.487111,6.819703 -2.036647,9.838246 2.043336,4.252359 13.165182,1.734325 12.613731,6.419801 -0.763475,6.48696 -16.801353,-1.541808 -19.049866,4.590707 -0.906757,2.473059 4.664791,6.378384 4.664791,6.378384"
       id="path22"
       sodipodi:nodetypes="caaaaaaaaaaac" />
    <circle
       style="fill:#000000;fill-opacity:1;fill-rule:evenodd;stroke:#000000;stroke-width:0.350999"
       id="path21-6"
       cx="41.74855"
       cy="62.616974"
       r="0.5" />
    <path
       style="fill:#000000;fill-opacity:0;fill-rule:evenodd;stroke:#000000;stroke-width:0.551;stroke-dasharray:none;marker-start:url(#Triangle);marker-end:url(#Triangle)"
       d="m 45.438575,55.031166 -3.567768,7.64041 -6.395059,-2.928262"
       id="path23" />
    <text
       xml:space="preserve"
       style="font-size:4.23333px;line-height:0;font-family:Arial;-inkscape-font-specification:'Arial, Normal';fill:none;fill-opacity:0;fill-rule:evenodd;stroke:#000000;stroke-width:0.551;stroke-dasharray:none"
       x="45.435497"
       y="59.966293"
       id="text23"><tspan
         sodipodi:role="line"
         id="tspan23"
         style="fill:none;stroke-width:0.551"
         x="45.435497"
         y="59.966293">$v_1$</tspan></text>
    <text
       xml:space="preserve"
       style="font-size:4.23333px;line-height:0;font-family:Arial;-inkscape-font-specification:'Arial, Normal';fill:none;fill-opacity:0;fill-rule:evenodd;stroke:#000000;stroke-width:0.551;stroke-dasharray:none"
       x="31.43396"
       y="63.082245"
       id="text24"><tspan
         sodipodi:role="line"
         id="tspan24"
         style="fill:none;stroke-width:0.551"
         x="31.43396"
         y="63.082245">$v_2$</tspan></text>
    <text
       xml:space="preserve"
       style="font-size:4.23333px;line-height:0;font-family:Arial;-inkscape-font-specification:'Arial, Normal';fill:none;fill-opacity:0;fill-rule:evenodd;stroke:#000000;stroke-width:0.551;stroke-dasharray:none"
       x="30.628965"
       y="75.932907"
       id="text25"><tspan
         sodipodi:role="line"
         id="tspan25"
         style="fill:none;stroke-width:0.551"
         x="30.628965"
         y="75.932907">$a$</tspan></text>
    <text
       xml:space="preserve"
       style="font-size:4.23333px;line-height:0;font-family:Arial;-inkscape-font-specification:'Arial, Normal';fill:none;fill-opacity:0;fill-rule:evenodd;stroke:#000000;stroke-width:0.551;stroke-dasharray:none"
       x="70.5476"
       y="78.019714"
       id="text26"><tspan
         sodipodi:role="line"
         id="tspan26"
         style="fill:none;stroke-width:0.551"
         x="70.5476"
         y="78.019714">$b$</tspan></text>
    <text
       xml:space="preserve"
       style="font-size:4.23333px;line-height:0;font-family:Arial;-inkscape-font-specification:'Arial, Normal';fill:none;fill-opacity:0;fill-rule:evenodd;stroke:#000000;stroke-width:0.551;stroke-dasharray:none"
       x="46.375744"
       y="69.858101"
       id="text27"><tspan
         sodipodi:role="line"
         id="tspan27"
         style="fill:none;stroke-width:0.551"
         x="46.375744"
         y="69.858101">$F^{-1}(y)$</tspan></text>
    <text
       xml:space="preserve"
       style="font-size:4.23333px;line-height:0;font-family:Arial;-inkscape-font-specification:'Arial, Normal';fill:none;fill-opacity:0;fill-rule:evenodd;stroke:#000000;stroke-width:0.551;stroke-dasharray:none"
       x="83.808929"
       y="59.373074"
       id="text28"><tspan
         sodipodi:role="line"
         id="tspan28"
         style="fill:none;stroke-width:0.551"
         x="83.808929"
         y="59.373074">$x$</tspan></text>
    <path
       style="fill:#000000;fill-opacity:0;fill-rule:evenodd;stroke:#000000;stroke-width:0.551;stroke-dasharray:none;marker-end:url(#Triangle)"
       d="m 103.86163,47.523402 c 8.41455,-0.201948 11.30915,-0.06732 11.30915,1.211697 0,1.279011 -5.38531,1.88486 -5.31799,2.894605 0.0673,1.009745 14.80961,0.201948 14.80961,0.201948"
       id="path28" />
    <text
       xml:space="preserve"
       style="font-size:4.23333px;line-height:0;font-family:Arial;-inkscape-font-specification:'Arial, Normal';fill:none;fill-opacity:0;fill-rule:evenodd;stroke:#000000;stroke-width:0.551;stroke-dasharray:none"
       x="113.18397"
       y="44.786533"
       id="text29"><tspan
         sodipodi:role="line"
         id="tspan29"
         style="fill:none;stroke-width:0.551"
         x="113.18397"
         y="44.786533">$F$</tspan></text>
    <text
       xml:space="preserve"
       style="font-size:4.23333px;line-height:0;font-family:Arial;-inkscape-font-specification:'Arial, Normal';fill:none;fill-opacity:0;fill-rule:evenodd;stroke:#000000;stroke-width:0.551;stroke-dasharray:none"
       x="145.33614"
       y="36.062119"
       id="text30"><tspan
         sodipodi:role="line"
         id="tspan30"
         style="fill:none;stroke-width:0.551"
         x="145.33614"
         y="36.062119">$N$</tspan></text>
    <path
       style="fill:#000000;fill-opacity:0;fill-rule:evenodd;stroke:#000000;stroke-width:0.551;stroke-dasharray:none;marker-end:url(#Triangle)"
       d="m 161.74443,55.001673 1.98426,-9.923996"
       id="path30"
       sodipodi:nodetypes="cc" />
    <text
       xml:space="preserve"
       style="font-size:4.23333px;line-height:0;font-family:Arial;-inkscape-font-specification:'Arial, Normal';fill:none;fill-opacity:0;fill-rule:evenodd;stroke:#000000;stroke-width:0.551;stroke-dasharray:none"
       x="163.3096"
       y="56.795578"
       id="text31"><tspan
         sodipodi:role="line"
         id="tspan31"
         style="fill:none;stroke-width:0.551"
         x="163.3096"
         y="56.795578">$y$</tspan></text>
  </g>
</svg>
